# xmcd CD database file
#
# Track frame offsets:
#	150
#	76091
#	145463
#
# Disc length: 3755 seconds
#
# Revision: 0
# Processed by: cddbd v1.5.2PL0 Copyright (c) Steve Scherf et al.
# Submitted via: CDex 1.70beta2
#
DISCID=1e0ea903
DTITLE=Tubby Hayes - Intensity
DYEAR=1965
DGENRE=Jazz
TTITLE0=Mini-Minor
TTITLE1=Alone Together
TTITLE2=Sometime Ago
EXTD=YEAR: 1965
EXTT0=
EXTT1=
EXTT2=
PLAYORDER=
